<?xml version="1.0" encoding="iso-8859-1"?>
<!-- Generator: Adobe Illustrator 16.0.0, SVG Export Plug-In . SVG Version: 6.00 Build 0)  -->
<!DOCTYPE svg PUBLIC "-//W3C//DTD SVG 1.1//EN" "http://www.w3.org/Graphics/SVG/1.1/DTD/svg11.dtd">
<svg version="1.1" id="Capa_1" xmlns="http://www.w3.org/2000/svg" xmlns:xlink="http://www.w3.org/1999/xlink" x="0px" y="0px"
	 width="45.549px" height="45.549px" viewBox="0 0 45.549 45.549" style="enable-background:new 0 0 45.549 45.549;"
	 xml:space="preserve">
<g>
	<path style="fill:#47a63a;" d="M43.203,28.166c-0.533-1.214-6.891,0.37-12.23,2.462c0.218-0.349,0.439-0.714,0.666-1.097
		c4.254-7.184,8.518-17.621,6.766-18.658c-1.499-0.888-6.919,5.398-11.117,11.732C27.124,12.546,25.166,0,22.774,0
		s-4.35,12.546-4.512,22.605C14.063,16.271,8.644,9.985,7.144,10.873C5.393,11.91,9.656,22.348,13.91,29.531
		c0.227,0.383,0.448,0.748,0.666,1.097c-5.34-2.093-11.698-3.677-12.23-2.462c-0.599,1.365,6.397,5.754,11.999,8.211
		c0.521,0.229,1.012,0.432,1.474,0.613c-2.889,1.022-5.704,2.431-5.514,3.104c0.235,0.833,4.99,0.225,8.406-0.738
		c1.105-0.312,1.926-0.621,2.545-0.927v5.599c0,0.841,0.684,1.521,1.524,1.521c0.84,0,1.524-0.681,1.524-1.521v-5.6
		c0.618,0.307,1.434,0.616,2.54,0.928c3.416,0.961,8.168,1.571,8.402,0.738c0.189-0.672-2.625-2.08-5.516-3.104
		c0.462-0.182,0.952-0.385,1.474-0.613C36.806,33.92,43.802,29.531,43.203,28.166z"/>
</g>
<g>
</g>
<g>
</g>
<g>
</g>
<g>
</g>
<g>
</g>
<g>
</g>
<g>
</g>
<g>
</g>
<g>
</g>
<g>
</g>
<g>
</g>
<g>
</g>
<g>
</g>
<g>
</g>
<g>
</g>
</svg>
